<mxfile host="app.diagrams.net" modified="2024-06-06T09:12:06.834Z" agent="Mozilla/5.0 (Windows NT 10.0; Win64; x64) AppleWebKit/537.36 (KHTML, like Gecko) Chrome/122.0.0.0 YaBrowser/24.4.0.0 Safari/537.36" etag="KTO8njRAyKXa6qaxdEFM" version="24.4.14" type="github">
  <diagram name="Page-1" id="b520641d-4fe3-3701-9064-5fc419738815">
    <mxGraphModel dx="1002" dy="575" grid="1" gridSize="10" guides="1" tooltips="1" connect="1" arrows="1" fold="1" page="1" pageScale="1" pageWidth="1100" pageHeight="850" background="none" math="0" shadow="0">
      <root>
        <mxCell id="0" />
        <mxCell id="1" parent="0" />
        <mxCell id="tda2RDWH6qV3lDIiz0vz-5" value="Брейн сторм тезисы&lt;div&gt;&lt;ol&gt;&lt;li&gt;Главная проблема списание связано с товаром через&lt;/li&gt;&lt;ol&gt;&lt;li&gt;shk&lt;/li&gt;&lt;li&gt;emlp_id&lt;/li&gt;&lt;/ol&gt;&lt;li&gt;Списание не связано с товаром&lt;/li&gt;&lt;ol&gt;&lt;li&gt;ЧЕрез дату. Непонятно какие операции брать как базу для приклеивания WH_id&lt;/li&gt;&lt;/ol&gt;&lt;li&gt;ЧТо случилось когда ты привязал статусы через шк он плейс?(нашлась еще половина от разницы)&lt;/li&gt;&lt;li&gt;ЗАчем использовать контейнер-якобы через него сможем связать всех кладовщиков кто трогал потеряный товар&lt;/li&gt;&lt;li&gt;Женя говорит привязывать нудно wh_id у операций у которых is_credit False&lt;/li&gt;&lt;li&gt;А что если просто смотреть что есть шк и сотрудник и по ближайшей(или какой операции?) можно определять склад.&lt;/li&gt;&lt;li&gt;Посмотреть сколько эмплоев не админов у которых в рамках одного шк две и более операций&lt;/li&gt;&lt;li&gt;Посмотреть сколько эмплоев не админов в рамках списанных шк имеют операции is credit&lt;/li&gt;&lt;li&gt;А могут ли быть в нескольких операциях по одном эмплою в рамках одного шк разны wh_id.&amp;nbsp;&lt;/li&gt;&lt;/ol&gt;&lt;div&gt;&lt;br&gt;&lt;/div&gt;&lt;/div&gt;" style="text;html=1;align=center;verticalAlign=middle;whiteSpace=wrap;rounded=0;" vertex="1" parent="1">
          <mxGeometry x="140" y="30" width="360" height="1000" as="geometry" />
        </mxCell>
        <mxCell id="tda2RDWH6qV3lDIiz0vz-7" value="ФИдбек Жене&lt;div&gt;1.Для 30% сотрудников на которых идут списания вообще нет&amp;nbsp; операций в тарификаторе&amp;nbsp;&lt;/div&gt;" style="text;html=1;align=center;verticalAlign=middle;whiteSpace=wrap;rounded=0;" vertex="1" parent="1">
          <mxGeometry x="600" y="320" width="220" height="70" as="geometry" />
        </mxCell>
      </root>
    </mxGraphModel>
  </diagram>
</mxfile>
